<svg width="0" height="0" class="hidden">
  <symbol fill="" xmlns="http://www.w3.org/2000/svg" viewBox="0 0 90 20" id="logo">
    <g clip-path="url(#clip0_6_11495)">
      <path d="M27.9727 3.12324C27.6435 1.89323 26.6768 0.926623 25.4468 0.597366C23.2197 1.78814e-07 14.285 0 14.285 0C14.285 0 5.35042 1.78814e-07 3.12323 0.597366C1.89323 0.926623 0.926623 1.89323 0.597366 3.12324C1.78814e-07 5.35042 0 10 0 10C0 10 1.78814e-07 14.6496 0.597366 16.8768C0.926623 18.1068 1.89323 19.0734 3.12323 19.4026C5.35042 20 14.285 20 14.285 20C14.285 20 23.2197 20 25.4468 19.4026C26.6768 19.0734 27.6435 18.1068 27.9727 16.8768C28.5701 14.6496 28.5701 10 28.5701 10C28.5701 10 28.5677 5.35042 27.9727 3.12324Z" fill="FF0000"></path>
      <path d="M11.4258 14.2854L18.8482 10.0004L11.4258 5.71533V14.2854Z" fill=""></path>
      <path d="M34.6024 13.0036L31.3945 1.41846H34.1932L35.3174 6.6701C35.6043 7.96361 35.8136 9.06662 35.95 9.97913H36.0323C36.1264 9.32532 36.3381 8.22937 36.665 6.68892L37.8291 1.41846H40.6278L37.3799 13.0036V18.561H34.6001V13.0036H34.6024Z" fill="212121"></path>
      <path d="M41.4701 18.1937C40.9057 17.8127 40.5035 17.22 40.2636 16.4157C40.0261 15.6114 39.9062 14.5437 39.9062 13.2078V11.3898C39.9062 10.0422 40.0426 8.95805 40.3154 8.14196C40.5882 7.32588 41.0139 6.72851 41.5924 6.35457C42.171 5.98063 42.9306 5.79248 43.8714 5.79248C44.798 5.79248 45.5388 5.98298 46.0985 6.36398C46.6559 6.74497 47.0651 7.34234 47.3238 8.15137C47.5825 8.96275 47.7119 10.0422 47.7119 11.3898V13.2078C47.7119 14.5437 47.585 15.6161 47.3334 16.4251C47.0817 17.2365 46.6724 17.8292 46.1079 18.2031C45.5435 18.5771 44.7768 18.7652 43.8102 18.7652C42.813 18.7675 42.0346 18.5747 41.4701 18.1937ZM44.6357 16.2323C44.7909 15.8231 44.8709 15.1575 44.8709 14.2309V10.3292C44.8709 9.43077 44.7933 8.77225 44.6357 8.35833C44.4781 7.94206 44.203 7.7351 43.8078 7.7351C43.4269 7.7351 43.1565 7.94206 43.0013 8.35833C42.8437 8.77461 42.766 9.43077 42.766 10.3292V14.2309C42.766 15.1575 42.8413 15.8254 42.9919 16.2323C43.1424 16.6415 43.4127 16.8461 43.8078 16.8461C44.203 16.8461 44.4781 16.6415 44.6357 16.2323Z" fill="212121"></path>
      <path d="M56.8159 18.5634H54.6099L54.3653 17.03H54.3042C53.7044 18.1871 52.806 18.7656 51.6066 18.7656C50.7764 18.7656 50.1626 18.4928 49.7675 17.9496C49.3724 17.4039 49.1748 16.5526 49.1748 15.3955V6.03751H51.9947V15.2308C51.9947 15.7906 52.0558 16.188 52.1781 16.4256C52.3004 16.6631 52.505 16.783 52.7919 16.783C53.0365 16.783 53.2717 16.7078 53.4975 16.5573C53.7233 16.4067 53.8879 16.2162 53.9984 15.9858V6.03516H56.8159V18.5634Z" fill="212121"></path>
      <path d="M64.4752 3.68758H61.6765V18.5629H58.9178V3.68758H56.1191V1.42041H64.4752V3.68758Z" fill=""></path>
      <path d="M71.2768 18.5634H69.0708L68.8262 17.03H68.7651C68.1654 18.1871 67.267 18.7656 66.0675 18.7656C65.2373 18.7656 64.6235 18.4928 64.2284 17.9496C63.8333 17.4039 63.6357 16.5526 63.6357 15.3955V6.03751H66.4556V15.2308C66.4556 15.7906 66.5167 16.188 66.639 16.4256C66.7613 16.6631 66.9659 16.783 67.2529 16.783C67.4974 16.783 67.7326 16.7078 67.9584 16.5573C68.1842 16.4067 68.3488 16.2162 68.4593 15.9858V6.03516H71.2768V18.5634Z" fill=""></path>
      <path d="M80.6092 8.0387C80.4375 7.24849 80.1623 6.67699 79.7814 6.32186C79.4004 5.96674 78.8759 5.79035 78.208 5.79035C77.6906 5.79035 77.2061 5.93616 76.7569 6.23014C76.3077 6.52412 75.9596 6.90747 75.715 7.38489H75.6939V0.785645H72.9775V18.5608H75.3058L75.5927 17.3755H75.6539C75.8726 17.7988 76.1995 18.1304 76.6346 18.3774C77.0697 18.622 77.5542 18.7443 78.0857 18.7443C79.0382 18.7443 79.7414 18.3045 80.1906 17.4272C80.6398 16.5476 80.8655 15.1765 80.8655 13.3092V11.3266C80.8655 9.92722 80.7785 8.82892 80.6092 8.0387ZM78.0245 13.1492C78.0245 14.0617 77.9869 14.7767 77.9116 15.2941C77.8364 15.8115 77.7117 16.1808 77.533 16.3971C77.3566 16.6158 77.1167 16.724 76.818 16.724C76.5852 16.724 76.3712 16.6699 76.1736 16.5594C75.9761 16.4512 75.8162 16.2866 75.6939 16.0702V8.96062C75.7879 8.6196 75.9526 8.34209 76.1854 8.12337C76.4159 7.90465 76.6699 7.79646 76.9403 7.79646C77.2273 7.79646 77.4483 7.90935 77.6036 8.13278C77.7611 8.35855 77.8693 8.73485 77.9305 9.26636C77.9916 9.79787 78.0222 10.5528 78.0222 11.5335V13.1492H78.0245Z" fill=""></path>
      <path d="M84.8657 13.8712C84.8657 14.6755 84.8892 15.2776 84.9363 15.6798C84.9833 16.0819 85.0821 16.3736 85.2326 16.5594C85.3831 16.7428 85.6136 16.8345 85.9264 16.8345C86.3474 16.8345 86.639 16.6699 86.7942 16.343C86.9518 16.0161 87.0365 15.4705 87.0506 14.7085L89.4824 14.8519C89.4965 14.9601 89.5035 15.1106 89.5035 15.3011C89.5035 16.4582 89.186 17.3237 88.5534 17.8952C87.9208 18.4667 87.0247 18.7536 85.8676 18.7536C84.4777 18.7536 83.504 18.3185 82.9466 17.446C82.3869 16.5735 82.1094 15.2259 82.1094 13.4008V11.2136C82.1094 9.33452 82.3987 7.96105 82.9772 7.09558C83.5558 6.2301 84.5459 5.79736 85.9499 5.79736C86.9165 5.79736 87.6597 5.97375 88.1771 6.32888C88.6945 6.684 89.059 7.23433 89.2707 7.98457C89.4824 8.7348 89.5882 9.76961 89.5882 11.0913V13.2362H84.8657V13.8712ZM85.2232 7.96811C85.0797 8.14449 84.9857 8.43377 84.9363 8.83593C84.8892 9.2381 84.8657 9.84722 84.8657 10.6657V11.5641H86.9283V10.6657C86.9283 9.86133 86.9001 9.25221 86.846 8.83593C86.7919 8.41966 86.6931 8.12803 86.5496 7.95635C86.4062 7.78702 86.1851 7.7 85.8864 7.7C85.5854 7.70235 85.3643 7.79172 85.2232 7.96811Z" fill=""></path>
    </g>
    <defs>
      <clipPath id="clip0_6_11495">
        <rect width="90" height="20" fill=""></rect>
      </clipPath>
    </defs>
  </symbol>
  <symbol fill="" xmlns="http://www.w3.org/2000/svg" viewBox="0 0 18 13" id="menu">
    <path d="M18 1H0V0H18V1ZM18 6H0V7H18V6ZM18 12H0V13H18V12Z" fill=""></path>
  </symbol>
  <symbol fill="" xmlns="http://www.w3.org/2000/svg" viewBox="0 0 4 16" id="more">
    <path d="M2.38965 12.5C3.21965 12.5 3.88965 13.17 3.88965 14C3.88965 14.83 3.21965 15.5 2.38965 15.5C1.55965 15.5 0.889648 14.83 0.889648 14C0.889648 13.17 1.55965 12.5 2.38965 12.5ZM0.889648 8C0.889648 8.83 1.55965 9.5 2.38965 9.5C3.21965 9.5 3.88965 8.83 3.88965 8C3.88965 7.17 3.21965 6.5 2.38965 6.5C1.55965 6.5 0.889648 7.17 0.889648 8ZM0.889648 2C0.889648 2.83 1.55965 3.5 2.38965 3.5C3.21965 3.5 3.88965 2.83 3.88965 2C3.88965 1.17 3.21965 0.5 2.38965 0.5C1.55965 0.5 0.889648 1.17 0.889648 2Z" fill="030303"></path>
  </symbol>
  <symbol fill="" xmlns="http://www.w3.org/2000/svg" viewBox="0 0 22 20" id="movie&amp;tv">
    <path d="M21.0096 3.41001L20.5096 0.450012L0.639648 3.69001L0.999648 6.50001V19.5H20.9996V6.50001H2.05965L21.0096 3.41001ZM3.99965 7.50001L4.99965 10.5H7.99965L6.99965 7.50001H8.99965L9.99965 10.5H12.9996L11.9996 7.50001H13.9996L14.9996 10.5H17.9996L16.9996 7.50001H19.9996V18.5H1.99965V7.50001H3.99965Z" fill="030303"></path>
  </symbol>
  <symbol fill="" xmlns="http://www.w3.org/2000/svg" viewBox="0 0 14 17" id="music">
    <path d="M7 0.5V9.88C6.27 9.04 5.2 8.5 4 8.5C1.79 8.5 0 10.29 0 12.5C0 14.71 1.79 16.5 4 16.5C6.21 16.5 8 14.71 8 12.5V4.5H14V0.5H7ZM4 15.5C2.34 15.5 1 14.16 1 12.5C1 10.84 2.34 9.5 4 9.5C5.66 9.5 7 10.84 7 12.5C7 14.16 5.66 15.5 4 15.5ZM13 3.5H8V1.5H13V3.5Z" fill="030303"></path>
  </symbol>
  <symbol fill="" xmlns="http://www.w3.org/2000/svg" viewBox="0 0 24 25" id="news">
    <path d="M11 11.5V17.5H7V11.5H11ZM12 10.5H6V18.5H12V10.5ZM3 3.53003V21.5H17L21 17.5V3.53003M20 4.50003V16.49L19.99 16.5H16V20.49L15.99 20.5H4V4.50003H20ZM18 8.50003H6V6.50003H18V8.50003ZM18 15.5H13V13.5H18V15.5ZM18 12.5H13V10.5H18V12.5Z" fill="030303"></path>
  </symbol>
  <symbol fill="" xmlns="http://www.w3.org/2000/svg" viewBox="0 0 20 21" id="podcast">
    <path d="M4 10.5C4 7.19 6.69 4.5 10 4.5C13.31 4.5 16 7.19 16 10.5C16 12.16 15.33 13.66 14.23 14.75L13.52 14.04C14.44 13.13 15 11.88 15 10.5C15 7.74 12.76 5.5 10 5.5C7.24 5.5 5 7.74 5 10.5C5 11.88 5.56 13.13 6.47 14.04L5.76 14.75C4.67 13.66 4 12.16 4 10.5ZM12 10.5C12 9.4 11.1 8.5 10 8.5C8.9 8.5 8 9.4 8 10.5C8 11.24 8.4 11.88 9 12.22V20.5H11V12.22C11.6 11.88 12 11.24 12 10.5ZM2.94 17.58L3.65 16.87C2.01 15.24 1 12.99 1 10.5C1 5.54 5.04 1.5 10 1.5C14.96 1.5 19 5.54 19 10.5C19 12.99 17.99 15.24 16.35 16.87L17.06 17.58C18.88 15.77 20 13.27 20 10.5C20 4.98 15.52 0.5 10 0.5C4.48 0.5 0 4.98 0 10.5C0 13.27 1.12 15.77 2.94 17.58Z" fill="030303"></path>
  </symbol>
  <symbol fill="" xmlns="http://www.w3.org/2000/svg" viewBox="0 0 20 21" id="profile">
    <path d="M10 0.5C4.48 0.5 0 4.98 0 10.5C0 16.02 4.48 20.5 10 20.5C15.52 20.5 20 16.02 20 10.5C20 4.98 15.52 0.5 10 0.5ZM10 1.5C14.96 1.5 19 5.54 19 10.5C19 11.92 18.66 13.26 18.07 14.46C16.54 12.74 14.09 11.57 10.69 11.43C11.6158 11.2687 12.455 10.7863 13.0604 10.0675C13.6657 9.34879 13.9984 8.4397 14 7.5C14 5.29 12.21 3.5 10 3.5C7.79 3.5 6 5.29 6 7.5C6 9.47 7.43 11.1 9.31 11.43C5.91 11.57 3.46 12.74 1.93 14.46C1.34 13.26 1 11.92 1 10.5C1 5.54 5.04 1.5 10 1.5ZM7 7.5C7 5.85 8.35 4.5 10 4.5C11.65 4.5 13 5.85 13 7.5C13 9.15 11.65 10.5 10 10.5C8.35 10.5 7 9.15 7 7.5ZM10 19.5C6.84 19.5 4.06 17.86 2.45 15.38C4.01 13.43 6.61 12.4 10 12.4C13.39 12.4 15.99 13.43 17.55 15.38C15.94 17.86 13.16 19.5 10 19.5Z" fill="065FD4"></path>
  </symbol>
  <symbol fill="" xmlns="http://www.w3.org/2000/svg" viewBox="0 0 24 25" id="redshort">
    <path d="M17.7703 11.08L16.5703 10.58L18.0003 9.82002C18.8781 9.35589 19.5357 8.56204 19.8282 7.6131C20.1208 6.66417 20.0244 5.63788 19.5603 4.76002C19.0961 3.88215 18.3023 3.22461 17.3534 2.93206C16.4044 2.6395 15.3781 2.73589 14.5003 3.20002L6.00027 7.70002C5.37549 8.02645 4.85568 8.52281 4.50078 9.13187C4.14587 9.74092 3.97032 10.4379 3.99436 11.1424C4.0184 11.8469 4.24106 12.5303 4.63666 13.1137C5.03225 13.6972 5.58469 14.1569 6.23027 14.44L7.43027 14.93L6.00027 15.69C5.14959 16.1697 4.51957 16.9622 4.24422 17.8992C3.96886 18.8362 4.06988 19.8436 4.52579 20.7072C4.98171 21.5709 5.75655 22.2226 6.68553 22.5238C7.61451 22.8249 8.62435 22.7519 9.50027 22.32L18.0003 17.82C18.625 17.4936 19.1449 16.9972 19.4998 16.3882C19.8547 15.7791 20.0302 15.0821 20.0062 14.3776C19.9821 13.6731 19.7595 12.9898 19.3639 12.4063C18.9683 11.8229 18.4158 11.3631 17.7703 11.08Z" fill="FF0000"></path>
    <path d="M10 15.41L15 12.76L10 10.11V15.41Z" fill=""></path>
  </symbol>
  <symbol fill="" xmlns="http://www.w3.org/2000/svg" viewBox="0 0 18 18" id="search">
    <path d="M17.87 17.17L12.28 11.58C13.35 10.35 14 8.75 14 7C14 3.13 10.87 0 7 0C3.13 0 0 3.13 0 7C0 10.87 3.13 14 7 14C8.75 14 10.35 13.35 11.58 12.29L17.17 17.88L17.87 17.17ZM7 13C3.69 13 1 10.31 1 7C1 3.69 3.69 1 7 1C10.31 1 13 3.69 13 7C13 10.31 10.31 13 7 13Z" fill="0F0F0F"></path>
  </symbol>
  <symbol fill="" xmlns="http://www.w3.org/2000/svg" viewBox="0 0 16 21" id="shopping">
    <path d="M3 6.5C3 9.26 5.24 11.5 8 11.5C10.76 11.5 13 9.26 13 6.5H12C12 8.71 10.21 10.5 8 10.5C5.79 10.5 4 8.71 4 6.5H3ZM12.9 4.5C12.44 2.22 10.42 0.5 8 0.5C5.58 0.5 3.56 2.22 3.1 4.5H0V18.5C0 19.6 0.9 20.5 2 20.5H14C15.1 20.5 16 19.6 16 18.5V4.5H12.9ZM8 1.5C9.86 1.5 11.43 2.77 11.87 4.5H4.13C4.57 2.77 6.14 1.5 8 1.5ZM15 18.5C15 19.05 14.55 19.5 14 19.5H2C1.45 19.5 1 19.05 1 18.5V5.5H15V18.5Z" fill="030303"></path>
  </symbol>
  <symbol fill="" xmlns="http://www.w3.org/2000/svg" viewBox="0 0 18 21" id="shorts">
    <path d="M7.00044 13.15V7.85001L12.0004 10.5L7.00044 13.15ZM14.7704 8.82001L13.5704 8.32001L15.0004 7.56001C16.8404 6.60001 17.5304 4.33001 16.5604 2.50001C15.5904 0.670006 13.3204 -0.0299938 11.4904 0.940006L3.00044 5.44001C1.71044 6.12001 0.930441 7.48001 1.00044 8.93001C1.07044 10.35 1.93044 11.6 3.22044 12.18C3.25044 12.19 4.42044 12.68 4.42044 12.68L3.00044 13.43C1.17044 14.4 0.470441 16.67 1.44044 18.5C2.41044 20.33 4.68044 21.03 6.51044 20.06L15.0104 15.56C16.3004 14.88 17.0704 13.52 17.0004 12.07C16.9304 10.65 16.0604 9.39001 14.7704 8.82001ZM14.5404 14.68L6.04044 19.18C4.70044 19.89 3.03044 19.38 2.32044 18.04C1.61044 16.7 2.12044 15.03 3.46044 14.32L5.50044 13.24V12.03L4.81044 11.75L3.70044 11.29C2.71044 10.88 2.05044 9.94001 2.00044 8.88001C1.95044 7.82001 2.52044 6.82001 3.46044 6.32001L11.9604 1.82001C13.3004 1.11001 14.9704 1.62001 15.6804 2.96001C16.3904 4.30001 15.8804 5.97001 14.5404 6.68001L12.5004 7.76001V8.97001L14.3004 9.71001C15.2904 10.12 15.9504 11.06 16.0004 12.12C16.0504 13.18 15.4804 14.18 14.5404 14.68Z" fill="030303"></path>
  </symbol>
  <symbol fill="" xmlns="http://www.w3.org/2000/svg" viewBox="0 0 18 21" id="sport">
    <path d="M15 3.5V0.5H3V3.5H0V9.5L3.23 11.11C3.93 13.61 6.2 15.45 8.92 15.49L5 17.5V20.5H13V17.5L9.08 15.49C11.8 15.45 14.07 13.61 14.77 11.11L18 9.5V3.5H15ZM3 9.88L1 8.88V4.5H3V9.88ZM12 19.5H6V18.11L9 16.57L12 18.11V19.5ZM14 9.5C14 12.26 11.76 14.5 9 14.5C6.24 14.5 4 12.26 4 9.5V1.5H14V9.5ZM17 8.88L15 9.88V4.5H17V8.88Z" fill="030303"></path>
  </symbol>
  <symbol fill="" xmlns="http://www.w3.org/2000/svg" viewBox="0 0 20 19" id="subscriptions">
    <path d="M8 15.5V9.5L13 12.5L8 15.5ZM15 0.5H5V1.5H15V0.5ZM18 3.5H2V4.5H18V3.5ZM20 6.5H0V18.5H20V6.5ZM1 7.5H19V17.5H1V7.5Z" fill="030303"></path>
  </symbol>
  <symbol fill="" xmlns="http://www.w3.org/2000/svg" viewBox="0 0 12 13" id="tick">
    <path d="M5.92025 0.416626C2.71191 0.416626 0.0869141 3.04163 0.0869141 6.24996C0.0869141 9.45829 2.71191 12.0833 5.92025 12.0833C9.12858 12.0833 11.7536 9.45829 11.7536 6.24996C11.7536 3.04163 9.12858 0.416626 5.92025 0.416626ZM4.63691 9.34163L2.18691 6.94996L3.00358 6.13329L4.63691 7.70829L8.83691 3.56663L9.65358 4.38329L4.63691 9.34163Z" fill="606060"></path>
  </symbol>
  <symbol fill="" xmlns="http://www.w3.org/2000/svg" viewBox="0 0 24 25" id="trending">
    <path d="M19 4.37V14.14C19 18.2 15.86 21.5 12 21.5C8.14 21.5 5 18.2 5 14.13V14C5 12.94 5.22 11.87 5.62 10.91C6.12 9.72 6.91 8.7 7.89 7.94C8.74 7.28 9.72 6.8 10.76 6.29C11.15 6.1 11.53 5.91 11.91 5.71C12.27 5.52 12.63 5.33 12.99 5.15V8.37L14.54 7.33L19 4.37ZM20 2.5L14 6.5V3.5C13.15 3.94 12.3 4.38 11.45 4.83C10.04 5.57 8.55 6.17 7.28 7.15C6.15 8.02 5.26 9.2 4.7 10.52C4.24 11.61 4 12.81 4 14V14.14C4 18.76 7.58 22.5 12 22.5C16.42 22.5 20 18.76 20 14.14V2.5ZM9.45 13.39L14 10.5V16.2C14 18.02 12.66 19.5 11 19.5C9.34 19.5 8 18.03 8 16.2C8 15.01 8.58 13.97 9.45 13.39Z" fill="030303"></path>
  </symbol>
  <symbol fill="" xmlns="http://www.w3.org/2000/svg" viewBox="0 0 14 18" id="voicesearch">
    <path d="M7 0C5.34 0 4 1.37 4 3.07V8.93C4 10.63 5.34 12 7 12C8.66 12 10 10.63 10 8.93V3.07C10 1.37 8.66 0 7 0ZM13.5 9H12.5C12.5 12.03 10.03 14.5 7 14.5C3.97 14.5 1.5 12.03 1.5 9H0.5C0.5 12.24 2.89 14.93 6 15.41V18H8V15.41C11.11 14.93 13.5 12.24 13.5 9Z" fill="0F0F0F"></path>
  </symbol>
  <symbol fill="" xmlns="http://www.w3.org/2000/svg" viewBox="0 0 20 21" id="browsingchannel">
    <path d="M15 11.5H11V15.5H9V11.5H5V9.5H9V5.5H11V9.5H15V11.5ZM10 1.5C5.04 1.5 1 5.54 1 10.5C1 15.46 5.04 19.5 10 19.5C14.96 19.5 19 15.46 19 10.5C19 5.54 14.96 1.5 10 1.5ZM10 0.5C15.52 0.5 20 4.98 20 10.5C20 16.02 15.52 20.5 10 20.5C4.48 20.5 0 16.02 0 10.5C0 4.98 4.48 0.5 10 0.5Z" fill="030303"></path>
  </symbol>
  <symbol fill="" xmlns="http://www.w3.org/2000/svg" viewBox="0 0 18 18" id="close">
    <path d="M9.70965 9L17.8596 17.15L17.1496 17.86L8.99965 9.71L0.849648 17.86L0.139648 17.15L8.28965 9L0.149648 0.849999L0.859648 0.139999L8.99965 8.29L17.1496 0.139999L17.8596 0.849999L9.70965 9Z" fill=""></path>
  </symbol>
  <symbol fill="" xmlns="http://www.w3.org/2000/svg" viewBox="0 0 13 8" id="expand">
    <path id="Vector" d="M13.0003 1.13004L6.65027 7.48004L0.280273 1.13004L1.00027 0.420044L6.64027 6.07004L12.2903 0.420044L13.0003 1.13004Z" fill="0F0F0F"></path>
  </symbol>
  <symbol fill="" xmlns="http://www.w3.org/2000/svg" viewBox="0 0 16 21" id="fashion">
    <path d="M8.5 4.94V4.44C9.36 4.21 10 3.43 10 2.5C10 1.4 9.1 0.5 8 0.5C6.9 0.5 6 1.4 6 2.5H7C7 1.95 7.45 1.5 8 1.5C8.55 1.5 9 1.95 9 2.5C9 3.05 8.55 3.5 8 3.5H7.5V4.94L0 11.5H2V17.5H3V19.5H4V17.5H6V20.5H7V17.5H9V19.5H10V17.5H11V14.5H14V11.5H16L8.5 4.94ZM2.66 10.5L8 5.83L13.34 10.5H2.66ZM10 16.5H3V11.5H10V16.5ZM11 13.5V11.5H13V13.5H11Z" fill="030303"></path>
  </symbol>
  <symbol fill="" xmlns="http://www.w3.org/2000/svg" viewBox="0 0 20 17" id="gaming">
    <path d="M8 8.5H6V10.5H4V8.5H2V6.5H4V4.5H6V6.5H8V8.5ZM15 9C15 8.17 14.33 7.5 13.5 7.5C12.67 7.5 12 8.17 12 9C12 9.83 12.67 10.5 13.5 10.5C14.33 10.5 15 9.83 15 9ZM18 6C18 5.17 17.33 4.5 16.5 4.5C15.67 4.5 15 5.17 15 6C15 6.83 15.67 7.5 16.5 7.5C17.33 7.5 18 6.83 18 6ZM14.97 1.65L10.47 4.18L9.98 4.45L9.49 4.18L4.99 1.65L1 3.89V10.32L9.98 15.36L18.96 10.32V3.89L14.97 1.65ZM14.97 0.5L19.96 3.3V10.9L9.98 16.5L0 10.9V3.3L4.99 0.5L9.98 3.3L14.97 0.5Z" fill="030303"></path>
  </symbol>
  <symbol fill="" xmlns="http://www.w3.org/2000/svg" viewBox="0 0 24 25" id="history">
    <path d="M14.97 17.45L9.99996 14.37V7.5H12V13.26L16.03 15.75L14.97 17.45ZM22 12.5C22 18.01 17.51 22.5 12 22.5C6.48996 22.5 1.99996 18.01 1.99996 12.5H2.99996C2.99996 17.46 7.03996 21.5 12 21.5C16.96 21.5 21 17.46 21 12.5C21 7.54 16.96 3.5 12 3.5C8.80996 3.5 5.91996 5.14 4.27996 7.88C4.16996 8.06 4.05996 8.25 3.96996 8.44L3.93996 8.5H7.99996V9.5H1.95996V3.5H2.95996V8.24C2.99996 8.15 3.02996 8.07 3.06996 7.99C3.17996 7.77 3.29996 7.57 3.41996 7.36C5.21996 4.36 8.50996 2.5 12 2.5C17.51 2.5 22 6.99 22 12.5Z" fill="030303"></path>
  </symbol>
  <symbol fill="" xmlns="http://www.w3.org/2000/svg" viewBox="0 0 16 21" id="learning">
    <path d="M12 19.5H9.72C9.37 20.1 8.74 20.5 8 20.5C7.26 20.5 6.62 20.1 6.28 19.5H4V18.5H12V19.5ZM16 8.5C16 11.46 14.39 14.04 12 15.42V17.5H4V15.42C1.61 14.04 0 11.46 0 8.5C0 4.08 3.58 0.5 8 0.5C12.42 0.5 16 4.08 16 8.5ZM11 16.5V14.84L11.5 14.55C13.66 13.3 15 10.98 15 8.5C15 4.64 11.86 1.5 8 1.5C4.14 1.5 1 4.64 1 8.5C1 10.98 2.34 13.3 4.5 14.56L5 14.84V16.5H11Z" fill="030303"></path>
  </symbol>
  <symbol fill="" xmlns="http://www.w3.org/2000/svg" viewBox="0 0 24 25" id="home">
    <path d="M4 21.5V10.58L12 3.62L20 10.58V21.5H14V15.5H10V21.5H4Z" fill="030303"></path>
  </symbol>
  <symbol fill="" xmlns="http://www.w3.org/2000/svg" viewBox="0 0 24 25" id="live">
    <path d="M14 12.5C14 13.6 13.1 14.5 12 14.5C10.9 14.5 10 13.6 10 12.5C10 11.4 10.9 10.5 12 10.5C13.1 10.5 14 11.4 14 12.5ZM8.48 8.94998L7.77 8.24998C6.68 9.32998 6 10.84 6 12.5C6 14.16 6.68 15.67 7.77 16.75L8.48 16.04C7.57 15.14 7 13.89 7 12.5C7 11.11 7.57 9.85998 8.48 8.94998ZM16.23 8.24998L15.52 8.95998C16.43 9.85998 17 11.11 17 12.5C17 13.89 16.43 15.14 15.52 16.05L16.23 16.76C17.32 15.67 18 14.16 18 12.5C18 10.84 17.32 9.32998 16.23 8.24998ZM5.65 6.12998L4.95 5.41998C3.13 7.22998 2 9.73998 2 12.5C2 15.26 3.13 17.77 4.95 19.58L5.66 18.87C4.02 17.24 3 14.99 3 12.5C3 10.01 4.02 7.75998 5.65 6.12998ZM19.05 5.41998L18.34 6.12998C19.98 7.75998 21 10.01 21 12.5C21 14.99 19.98 17.24 18.35 18.87L19.06 19.58C20.87 17.77 22 15.26 22 12.5C22 9.73998 20.87 7.22998 19.05 5.41998Z" fill="030303"></path>
  </symbol>
</svg>